# AST/ASF file generated using VICON BodyLanguage
# -----------------------------------------------
:version 1.10
:name VICON
:units
  mass 1.0
  length 0.45
  angle deg
:documentation
   .ast/.asf automatically generated from VICON data using
   VICON BodyBuilder and BodyLanguage model FoxedUp or BRILLIANT.MOD
:root
   order TX TY TZ RX RY RZ
   axis XYZ
   position 0 0 0  
   orientation 0 0 0 
:bonedata
  begin
     id 1 
     name lhipjoint
     direction 0.611804 -0.747784 0.257906 
     length 2.29243 
     axis 0 0 0  XYZ
  end
  begin
     id 2 
     name lfemur
     direction 0.34202 -0.939693 0  
     length 7.31159  
     axis 0 0 20  XYZ
    dof rx ry rz
    limits (-160.0 20.0)
           (-70.0 70.0)
           (-60.0 70.0)
  end
  begin
     id 3 
     name ltibia
     direction 0.34202 -0.939693 0   
     length 7.33391   
     axis 0 0 20   XYZ
    dof rx
    limits (-10.0 170.0)
  end
  begin
     id 4 
     name lfoot
     direction 0.122263 -0.335914 0.933924   
     length 1.76083   
     axis -90 7.62852e-016 20   XYZ
    dof rx rz
    limits (-45.0 90.0)
           (-70.0 20.0)
  end
  begin
     id 5 
     name ltoes
     direction 1.53533e-011 -4.2177e-011 1   
     length 0.879206   
     axis -90 7.62852e-016 20   XYZ
    dof rx
    limits (-90.0 20.0)
  end
  begin
     id 6 
     name rhipjoint
     direction -0.646469 -0.721248 0.248754   
     length 2.37677  
     axis 0 0 0  XYZ 
  end
  begin
     id 7 
     name rfemur
     direction -0.34202 -0.939693 0   
     length 7.18623   
     axis 0 0 -20   XYZ
    dof rx ry rz
    limits (-160.0 20.0)
           (-70.0 70.0)
           (-70.0 60.0)
  end
  begin
     id 8 
     name rtibia
     direction -0.34202 -0.939693 0   
     length 7.36567   
     axis 0 0 -20   XYZ
    dof rx
    limits (-10.0 170.0)
 end
 begin
     id 9 
     name rfoot
     direction -0.126681 -0.348054 0.928876   
     length 1.71902  
     axis -90 -7.62852e-016 -20   XYZ
    dof rx rz
    limits (-45.0 90.0)
           (-20.0 70.0)
  end
  begin
     id 10 
     name rtoes
     direction -1.53551e-011 -4.21898e-011 1   
     length 0.857792   
     axis -90 -7.62852e-016 -20   XYZ
    dof rx
    limits (-90.0 20.0)
  end
  begin
     id 11 
     name lowerback
     direction 0.0106509 0.999778 0.0181844   
     length 2.07668   
     axis 0 0 0   XYZ
    dof rx ry rz
    limits (-20.0 45.0)
           (-30.0 30.0)
           (-30.0 30.0)
  end
  begin
     id 12 
     name upperback
     direction -0.00456018 0.999989 -0.000590935   
     length 2.08011   
     axis 0 0 0   XYZ
    dof rx ry rz
    limits (-20.0 45.0)
           (-30.0 30.0)
           (-30.0 30.0)
  end
  begin
     id 13 
     name thorax
     direction -0.00910382 0.999916 -0.00923765   
     length 2.07397   
     axis 0 0 0   XYZ
    dof rx ry rz
    limits (-20.0 45.0)
           (-30.0 30.0)
           (-30.0 30.0)
  end
  begin
     id 14 
     name lowerneck
     direction 0.00171967 0.99778 0.0665733   
     length 1.67556   
     axis 0 0 0   XYZ
    dof rx ry rz
    limits (-20.0 45.0)
           (-30.0 30.0)
           (-30.0 30.0)
  end
  begin
     id 15 
     name upperneck
     direction -0.0143166 0.991302 -0.130828   
     length 1.68462   
     axis 0 0 0   XYZ
    dof rx ry rz
    limits (-20.0 45.0)
           (-30.0 30.0)
           (-30.0 30.0)
  end
  begin
     id 16
     name head
     direction -0.00606378 0.998665 -0.0512995  
     length 1.69269  
     axis 0 0 0   XYZ
    dof rx ry rz
    limits (-20.0 45.0)
           (-30.0 30.0)
           (-30.0 30.0)
  end
  begin
     id 17 
     name lclavicle
     direction 0.9638 0.179341 0.197297  
     length 4.12888  
     axis 0 0 0   XYZ
    dof ry rz
    limits (-20.0 10.0)
           (0.0 20.0)
  end
  begin
     id 18 
     name lhumerus
     direction 1 -4.48972e-011 -2.47351e-027   
     length 5.01834   
     axis -180 -30 -90   XYZ
    dof rx ry rz
    limits (-60.0 90.0)
           (-90.0 90.0)
           (-90.0 90.0)
  end
  begin
     id 19
     name lradius
     direction 1 -4.48965e-011 1.51591e-026   
     length 3.4869   
     axis -180 -30 -90   XYZ
    dof rx
    limits (-10.0 170.0)
  end
  begin
     id 20
     name lwrist
     direction 1 -4.48957e-011 2.70032e-026   
     length 1.74345   
     axis -1.81515e-014 90 90   XYZ
    dof ry
    limits (-180.0 0.0)
 end
  begin
     id 21 
     name lhand
     direction 1 -4.48951e-011 5.40064e-026   
     length 0.76799   
     axis -3.44607e-014 90 90   XYZ
    dof rx rz
    limits (-90.0 90.0)
           (-45.0 45.0)
  end
  begin
     id 22 
     name lfingers
     direction 1 -4.48971e-011 1.08013e-025   
     length 0.619174   
     axis -6.89214e-014 90 90   XYZ
    dof rx
    limits (0.0 90.0)
  end
  begin
     id 23
     name lthumb
     direction 0.707107 -6.34931e-011 0.707107   
     length 0.889013   
     axis -90 45 2.85299e-015   XYZ
    dof rx rz
    limits (-45.0 45.0)
           (-45.0 45.0)
  end
  begin
     id 24 
     name rclavicle
     direction -0.961409 0.252588 0.109054   
     length 4.04305  
     axis 0 0 0   XYZ 
    dof ry rz
    limits (-10.0 20.0)
           (-20.0 0.0)
  end
  begin
     id 25 
     name rhumerus
     direction -1 -4.4897e-011 1.33872e-017  
     length 4.70164   
     axis -180 30 90   XYZ
    dof rx ry rz
    limits (-90.0 60.0)
           (-90.0 90.0)
           (-90.0 90.0)
  end
  begin
     id 26 
     name rradius
     direction -1 -4.48954e-011 1.83844e-026   
     length 3.49911   
     axis -180 30 90   XYZ
    dof rx
    limits (-10.0 170.0)
  end
  begin
     id 27 
     name rwrist
     direction -1 -4.49008e-011 2.70032e-026   
     length 1.74955   
     axis -1.81515e-014 -90 -90   XYZ
    dof ry
    limits (-180.0 0.0)
  end
  begin
     id 28
     name rhand
     direction -1 -4.48916e-011 5.40064e-026   
     length 0.739335   
     axis -3.44607e-014 -90 -90   XYZ
    dof rx rz
    limits (-90.0 90.0)
           (-45.0 45.0)
  end
  begin
     id 29
     name rfingers
     direction -1 -4.48987e-011 1.08013e-025   
     length 0.596071   
     axis -6.89214e-014 -90 -90   XYZ
    dof rx
    limits (0.0 90.0)
  end
  begin
     id 30
     name rthumb
     direction -0.707107 -6.34935e-011 0.707107   
     length 0.855843   
     axis -90 -45 -2.85299e-015   XYZ
    dof rx rz
    limits (-45.0 45.0)
           (-45.0 45.0)
  end
:hierarchy
  begin
    root lhipjoint rhipjoint lowerback
    lhipjoint lfemur
    lfemur ltibia
    ltibia lfoot
    lfoot ltoes
    rhipjoint rfemur
    rfemur rtibia
    rtibia rfoot
    rfoot rtoes
    lowerback upperback
    upperback thorax
    thorax lowerneck lclavicle rclavicle
    lowerneck upperneck
    upperneck head
    lclavicle lhumerus
    lhumerus lradius
    lradius lwrist
    lwrist lhand lthumb
    lhand lfingers
    rclavicle rhumerus
    rhumerus rradius
    rradius rwrist
    rwrist rhand rthumb
    rhand rfingers
  end

#!OML:ASF I:\salsa\salsa 7_09\Patient 1\Session 1\dancermale.ASF
:FULLY-SPECIFIED
:DEGREES
426
root 5.40651 17.0167 6.51546 196.719 -3.82887 175.362
lowerback -4.98913 1.97766 -0.226628
upperback -3.59906 2.39276 -2.64272
thorax -0.801816 1.0664 -2.48507
lowerneck 1.08815 14.0251 8.82469
upperneck 11.4725 19.5617 -12.7749
head 5.42341 9.23856 -4.19082
rclavicle -1.14301e-015 1.2921e-015
rhumerus -67.2134 17.7938 -112.557
rradius 111.432
rwrist 12.324
rhand -66.708 4.78025
rfingers 7.12502
rthumb -38.5114 -20.878
lclavicle -1.14301e-015 1.2921e-015
lhumerus -9.58088 6.63331 80.3676
lradius 48.6698
lwrist 4.01628
lhand -25.7693 41.9523
lfingers 7.12502
lthumb 0.768601 -288.069
rfemur -10.6732 7.33101 14.134
rtibia 37.3531
rfoot -15.7983 -12.2012
rtoes -10.3734
lfemur -36.9598 -17.2627 -12.8937
ltibia 30.3691
lfoot -22.8002 -10.6339
ltoes -31.9911
427
root 5.51318 17.0327 6.59177 197.539 -7.34613 175.754
lowerback -5.17295 1.91937 0.293507
upperback -3.81027 2.29548 -2.40117
thorax -0.909925 1.00989 -2.53081
lowerneck 0.585731 13.9998 8.378
upperneck 11.5952 19.52 -12.4629
head 5.46419 9.2002 -4.00173
rclavicle -3.59676e-014 2.67365e-014
rhumerus -67.0174 18.1693 -113.406
rradius 110.94
rwrist 12.8708
rhand -66.7062 5.36607
rfingers 7.12502
rthumb -38.5097 -20.2926
lclavicle -3.59676e-014 2.67365e-014
lhumerus -9.07961 7.09074 79.1872
lradius 48.8881
lwrist 3.55801
lhand -25.1042 41.7181
lfingers 7.12502
lthumb 1.41096 -288.307
rfemur -9.79308 4.78493 16.0548
rtibia 34.4899
rfoot -16.9279 -14.4307
rtoes -8.48264
lfemur -38.5272 -16.4313 -11.9701
ltibia 29.9133
lfoot -22.6995 -12.9905
ltoes -31.1686
428
root 5.59175 17.0327 6.63758 197.762 -9.8841 176.01
lowerback -5.25418 2.17987 0.713581
upperback -3.71508 2.65128 -2.26952
thorax -0.737233 1.19373 -2.6091
lowerneck 0.0892753 13.9065 7.79809
upperneck 11.4535 19.3912 -12.312
head 5.41639 9.11783 -3.85863
rclavicle -5.51379e-014 -1.33186e-014
rhumerus -66.687 18.787 -114.017
rradius 110.516
rwrist 13.7371
rhand -66.9028 6.17304
rfingers 7.12502
rthumb -38.6952 -19.4336
lclavicle -5.51379e-014 -1.33186e-014
lhumerus -8.48724 7.73639 78.2604
lradius 49.2141
lwrist 2.80463
lhand -24.4738 41.7174
lfingers 7.12502
lthumb 2.01981 -288.312
rfemur -8.38679 2.96821 17.4581
rtibia 31.68
rfoot -17.3342 -16.2712
rtoes -9.26348
lfemur -38.7943 -14.9585 -12.1077
ltibia 29.22
lfoot -22.4108 -14.2829
ltoes -29.3536
429
root 5.6765 17.0355 6.69262 197.885 -12.5089 176.375
lowerback -5.06148 2.4533 1.27711
upperback -3.64031 3.01882 -2.17568
thorax -0.725029 1.38015 -2.81599
lowerneck -0.297364 13.6264 7.66191
upperneck 11.1517 19.0384 -12.6056
head 5.36563 8.93247 -3.94066
rclavicle -1.60767e-014 -8.15017e-015
rhumerus -66.1923 19.4398 -114.497
rradius 110.414
rwrist 14.5357
rhand -67.1824 4.44735
rfingers 7.12502
rthumb -38.9589 -21.0845
lclavicle -1.60767e-014 -8.15017e-015
lhumerus -7.88039 7.75425 77.2191
lradius 49.5403
lwrist 2.38828
lhand -23.7792 41.9508
lfingers 7.12502
lthumb 2.69056 -288.086
rfemur -7.39568 1.696 19.0957
rtibia 29.5317
rfoot -17.5156 -18.5204
rtoes -11.2192
lfemur -39.304 -12.7938 -12.6006
ltibia 29.3381
lfoot -22.3288 -14.536
ltoes -28.6651
430
root 5.73699 17.041 6.75533 198.232 -15.2642 176.449
lowerback -4.64078 2.62768 1.25724
upperback -3.92409 3.25503 -1.68629
thorax -1.26644 1.49626 -2.31751
lowerneck -0.413013 13.2544 7.37591
upperneck 11.1645 18.6133 -13.3234
head 5.38622 8.66043 -4.15175
rclavicle 7.62836e-014 5.1684e-015
rhumerus -66.315 20.4094 -114.174
rradius 110.561
rwrist 15.3795
rhand -67.056 0.223905
rfingers 7.12502
rthumb -38.8397 -25.3419
lclavicle 7.62836e-014 5.1684e-015
lhumerus -7.93687 7.98012 76.7772
lradius 49.7381
lwrist 1.54648
lhand -22.6113 41.979
lfingers 7.12502
lthumb 3.81842 -288.075
rfemur -7.03968 0.553703 20.3782
rtibia 28.1028
rfoot -17.7166 -19.9951
rtoes -10.7878
lfemur -40.3706 -10.4209 -13.9138
ltibia 30.4234
lfoot -22.6618 -13.2566
ltoes -27.3884
431
root 5.78734 17.0407 6.79177 198.639 -17.9195 176.479
lowerback -4.68666 2.83776 0.765983
upperback -4.18179 3.54493 -0.913805
thorax -1.56997 1.6534 -1.24662
lowerneck -0.372331 12.8284 6.6435
upperneck 11.2337 18.1044 -13.9126
head 5.3337 8.33208 -4.28249
rclavicle -6.87795e-014 -1.27222e-014
rhumerus -66.4467 21.5923 -113.202
rradius 110.905
rwrist 15.6886
rhand -67.4118 -3.35943
rfingers 7.12502
rthumb -39.1751 -28.8291
lclavicle -6.87795e-014 -1.27222e-014
lhumerus -8.164 7.77113 76.6385
lradius 49.8428
lwrist 1.3544
lhand -22.141 42.199
lfingers 7.12502
lthumb 4.27262 -287.864
rfemur -6.92608 -0.411242 21.5295
rtibia 27.1693
rfoot -18.1888 -20.543
rtoes -6.99644
lfemur -41.463 -7.82015 -15.7161
ltibia 31.9778
lfoot -23.3853 -10.2903
ltoes -27.6868
432
root 5.80566 17.0098 6.77558 198.609 -19.3766 176.013
lowerback -4.96654 3.30964 -0.391399
upperback -4.05865 4.22279 -0.384454
thorax -1.39423 2.02964 -0.0203299
lowerneck -0.797041 12.4407 5.70099
upperneck 11.8924 17.6486 -13.9124
head 5.47555 8.00175 -4.15668
rclavicle -7.35503e-014 7.15625e-015
rhumerus -66.3019 22.8731 -111.952
rradius 111.4
rwrist 14.9777
rhand -67.2936 -9.19124
rfingers 7.12502
rthumb -39.0637 -34.693
lclavicle -7.35503e-014 7.15625e-015
lhumerus -8.59823 7.17838 76.305
lradius 50.3512
lwrist 2.18185
lhand -22.5724 43.0558
lfingers 7.12502
lthumb 3.85602 -286.999
rfemur -5.91451 -1.30258 21.4947
rtibia 26.2143
rfoot -18.6264 -20.4864
rtoes -4.38546
lfemur -41.1351 -4.76147 -18.7073
ltibia 33.1027
lfoot -23.6459 -5.04554
ltoes -29.1138
433
root 5.82899 16.983 6.75794 198.615 -21.1531 175.681
lowerback -5.30122 3.61397 -0.549157
upperback -3.84512 4.65066 -0.400111
thorax -1.00144 2.25214 0.0969974
lowerneck -0.948209 12.1256 5.43609
upperneck 11.7789 17.2334 -13.9515
head 5.40275 7.79135 -4.16181
rclavicle -1.54058e-014 -7.95139e-015
rhumerus -64.9131 23.921 -111.088
rradius 111.794
rwrist 13.6966
rhand -66.2357 -13.6791
rfingers 7.12502
rthumb -38.0655 -39.4605
lclavicle -1.54058e-014 -7.95139e-015
lhumerus -9.08044 6.8526 75.1019
lradius 51.222
lwrist 2.7467
lhand -22.5457 43.6049
lfingers 7.12502
lthumb 3.88184 -286.451
rfemur -5.19127 -2.55693 21.7001
rtibia 25.5232
rfoot -18.7367 -20.8265
rtoes -3.96061
lfemur -41.2159 -1.59784 -21.5395
ltibia 34.8166
lfoot -23.0457 0.20831
ltoes -28.6623
434
root 5.84716 16.9572 6.73414 198.599 -23.1949 175.721
lowerback -5.72727 3.81984 -0.465915
upperback -3.66684 4.93248 -0.175947
thorax -0.596302 2.39661 0.329216
lowerneck -1.11513 11.8779 5.1827
upperneck 11.5983 16.9131 -14.0574
head 5.32989 7.62683 -4.17894
rclavicle 1.96797e-014 -8.74653e-015
rhumerus -63.4818 24.967 -109.612
rradius 111.922
rwrist 12.5991
rhand -64.8681 -16.6364
rfingers 7.12502
rthumb -36.7729 -42.7592
lclavicle 1.96797e-014 -8.74653e-015
lhumerus -9.72045 6.71736 74.0018
lradius 51.918
lwrist 2.89788
lhand -22.0059 43.7512
lfingers 7.12502
lthumb 4.40307 -286.315
rfemur -4.7257 -3.86944 22.4015
rtibia 25.0613
rfoot -18.7913 -21.246
rtoes -3.6472
lfemur -41.6002 1.22525 -23.7369
ltibia 36.8444
lfoot -22.3381 4.62307
ltoes -25.6221
435
root 5.85523 16.9286 6.69783 198.482 -25.2687 176.064
lowerback -6.28948 4.06931 -0.223703
upperback -3.49304 5.25517 0.158315
thorax -0.119138 2.55723 0.602888
lowerneck -1.4817 11.5934 4.98803
upperneck 11.6142 16.5643 -14.1739
head 5.35524 7.42987 -4.19477
rclavicle -1.21259e-014 -2.38542e-014
rhumerus -61.7322 25.4442 -107.502
rradius 111.816
rwrist 11.2783
rhand -63.3531 -13.8951
rfingers 7.12502
rthumb -35.3378 -40.3716
lclavicle -1.21259e-014 -2.38542e-014
lhumerus -10.3198 6.1505 72.9577
lradius 52.4021
lwrist 3.08811
lhand -21.4663 44.0299
lfingers 7.12502
lthumb 4.92407 -286.047
rfemur -4.31406 -4.85846 23.4891
rtibia 24.7266
rfoot -18.9539 -21.7634
rtoes -2.82272
lfemur -41.9659 3.59944 -25.3445
ltibia 38.8462
lfoot -22.1453 8.13891
ltoes -21.2554
436
root 5.85512 16.8988 6.65053 198.281 -27.4015 176.429
lowerback -6.88069 4.24127 0.0794178
upperback -3.24437 5.46583 0.479019
thorax 0.457816 2.66145 0.834173
lowerneck -1.8766 11.3205 4.85252
upperneck 11.4669 16.2265 -14.3925
head 5.35038 7.24386 -4.25008
rclavicle -4.63168e-014 -1.90833e-014
rhumerus -59.6337 25.3747 -105.278
rradius 111.648
rwrist 10.2662
rhand -61.164 -9.5486
rfingers 7.12502
rthumb -33.2592 -36.4937
lclavicle -4.63168e-014 -1.90833e-014
lhumerus -10.9635 5.55172 71.8482
lradius 52.9221
lwrist 3.38654
lhand -20.9158 44.2123
lfingers 7.12502
lthumb 5.45563 -285.878
rfemur -3.7466 -5.49834 24.6752
rtibia 24.2688
rfoot -18.9353 -22.4601
rtoes -2.35083
lfemur -42.2447 5.66974 -26.7641
ltibia 40.7781
lfoot -22.2477 10.5611
ltoes -17.7917
437
root 5.85377 16.8594 6.59756 198.405 -29.5675 176.722
lowerback -7.63459 4.35097 0.17914
upperback -3.13828 5.5865 0.783322
thorax 0.959879 2.71725 1.16466
lowerneck -2.23114 11.0555 4.73027
upperneck 11.2065 15.8833 -14.5739
head 5.30116 7.06742 -4.30052
rclavicle -3.43897e-014 3.18055e-014
rhumerus -56.5902 23.9476 -101.794
rradius 109.678
rwrist 7.87467
rhand -54.6814 14.1991
rfingers 7.12502
rthumb -27.0754 -13.8796
lclavicle -3.43897e-014 3.18055e-014
lhumerus -11.7619 4.66118 70.6743
lradius 53.4964
lwrist 4.38747
lhand -20.328 44.5496
lfingers 7.12502
lthumb 6.02315 -285.556
rfemur -3.57382 -6.19548 25.7699
rtibia 23.9049
rfoot -18.618 -22.8548
rtoes -2.66168
lfemur -42.9547 7.5152 -28.1733
ltibia 42.7466
lfoot -22.1268 11.8598
ltoes -15.76
438
root 5.8144 16.8331 6.50438 197.528 -31.0551 177.136
lowerback -7.81019 4.69007 0.39008
upperback -2.812 6.02394 1.067
thorax 1.37632 2.93842 1.40696
lowerneck -2.37405 10.7568 4.58619
upperneck 10.914 15.4777 -14.7097
head 5.19383 6.87189 -4.35236
rclavicle 9.83984e-014 6.67916e-014
rhumerus -53.9271 21.9182 -99.7943
rradius 108.523
rwrist 4.91165
rhand -52.0888 13.6655
rfingers 7.12502
rthumb -24.5926 -14.7748
lclavicle 9.83984e-014 6.67916e-014
lhumerus -12.9213 3.40166 69.6068
lradius 54.2718
lwrist 6.20436
lhand -19.6898 45.2814
lfingers 7.12502
lthumb 6.63927 -284.843
rfemur -2.34709 -7.09286 26.2101
rtibia 23.7482
rfoot -18.1101 -22.2202
rtoes -3.52188
lfemur -41.9874 9.52682 -29.1199
ltibia 43.7842
lfoot -21.8684 12.5032
ltoes -14.9581
439
root 5.76417 16.8121 6.40507 196.777 -32.5911 177.388
lowerback -7.99581 5.01192 0.517267
upperback -2.56407 6.43903 1.28231
thorax 1.71515 3.14661 1.62492
lowerneck -2.48523 10.4068 4.38282
upperneck 10.6531 14.9962 -14.769
head 5.07275 6.64031 -4.37931
rclavicle -4.21423e-014 -3.02153e-014
rhumerus -51.6402 19.8825 -97.408
rradius 108.042
rwrist -1.70529
rhand -47.2741 13.9451
rfingers 7.12502
rthumb -19.9708 -15.0487
lclavicle -4.21423e-014 -3.02153e-014
lhumerus -14.3254 1.96001 68.7808
lradius 55.2093
lwrist 8.35627
lhand -19.0587 45.9448
lfingers 7.12502
lthumb 7.24853 -284.199
rfemur -1.50791 -8.1809 26.3909
rtibia 24.3238
rfoot -17.5829 -21.3182
rtoes -4.53812
lfemur -40.8044 11.1854 -29.8925
ltibia 44.363
lfoot -21.8001 12.1407
ltoes -15.0416
440
root 5.74483 16.7707 6.32676 197.6 -34.7673 177.263
lowerback -8.95211 5.11953 0.183473
upperback -2.88536 6.56946 1.3118
thorax 1.86423 3.19903 1.9224
lowerneck -2.60145 9.9733 4.15494
upperneck 10.435 14.3851 -14.5988
head 4.93404 6.35755 -4.3408
rclavicle -1.50082e-014 6.36111e-015
rhumerus -49.8221 17.4847 -95.548
rradius 107.486
rwrist -10.5354
rhand -42.5339 11.7807
rfingers 7.12502
rthumb -15.4095 -17.625
lclavicle -1.50082e-014 6.36111e-015
lhumerus -15.7744 0.170935 68.0649
lradius 56.0742
lwrist 10.6838
lhand -18.2628 46.4698
lfingers 7.12502
lthumb 8.01669 -283.702
rfemur -2.82419 -9.47679 26.961
rtibia 25.9785
rfoot -16.9713 -20.8662
rtoes -5.94092
lfemur -41.3977 11.9704 -30.9229
ltibia 45.1181
lfoot -22.2042 10.3732
ltoes -13.9834
